<svg xmlns="http://www.w3.org/2000/svg" viewBox="0 0 280.72 433.24"><g id="Calque_2" data-name="Calque 2"><g id="Calque_1-2" data-name="Calque 1"><path d="M186.62,238.21V370H126.74V233a132,132,0,0,1,21.75-1.73A109.84,109.84,0,0,1,186.62,238.21Z"/><path d="M280.72,0V49.23h-94.1V206.37A141.68,141.68,0,0,0,130.2,195c-1.17,0-2.33,0-3.46.07V49.23H49.23A49.22,49.22,0,0,1,0,0Z"/><path d="M280.72,66.46V433.24H235.81V269.14c-9.08-18.32-27.47-32.89-49.19-40.91a109.84,109.84,0,0,0-38.13-6.95A132,132,0,0,0,126.74,223c-30.27,4.92-53.92,20.62-53.92,47.13v163.1H31.24V282.88c0-46.37,41.44-76.64,95.5-77.87,1.13-.07,2.29-.07,3.46-.07a141.68,141.68,0,0,1,56.42,11.41c19.19,8.25,35.69,20.86,47.53,37h1.66V126.61C235.81,93.41,254.08,66.46,280.72,66.46Z"/></g></g></svg>